<svg xmlns="http://www.w3.org/2000/svg" width="1920" height="1080"><path d="M-18,1270L-221,1284L493,1294Z" fill="#414141" stroke="#414141" stroke-width="1.51"/><path d="M-139,-222L-24,-215L527,-212Z" fill="#121212" stroke="#121212" stroke-width="1.51"/><path d="M493,1294L-221,1284L762,1307Z" fill="#444444" stroke="#444444" stroke-width="1.51"/><path d="M-139,-222L527,-212L887,-227Z" fill="#151515" stroke="#151515" stroke-width="1.51"/><path d="M997,1291L762,1307L1244,1282Z" fill="#4c4c4c" stroke="#4c4c4c" stroke-width="1.51"/><path d="M1363,1280L1244,1282L1545,1281Z" fill="#585858" stroke="#585858" stroke-width="1.51"/><path d="M1244,1282L762,1307L1545,1281Z" fill="#525252" stroke="#525252" stroke-width="1.51"/><path d="M1045,-225L1292,-212L1591,-209Z" fill="#252525" stroke="#252525" stroke-width="1.51"/><path d="M1545,1281L762,1307L1704,1283Z" fill="#575757" stroke="#575757" stroke-width="1.51"/><path d="M1045,-225L1591,-209L2010,-206Z" fill="#2c2c2c" stroke="#2c2c2c" stroke-width="1.51"/><path d="M1591,-209L1704,-190L2010,-206Z" fill="#333333" stroke="#333333" stroke-width="1.51"/><path d="M1949,1222L1865,1226L2052,1252Z" fill="#696969" stroke="#696969" stroke-width="1.51"/><path d="M1865,1226L1704,1283L2052,1252Z" fill="#686868" stroke="#686868" stroke-width="1.51"/><path d="M2020,1009L2075,1122L2079,989Z" fill="#636363" stroke="#636363" stroke-width="1.51"/><path d="M1985,739L1976,863L2092,735Z" fill="#545454" stroke="#545454" stroke-width="1.51"/><path d="M1993,-69L1974,107L2099,-36Z" fill="#3f3f3f" stroke="#3f3f3f" stroke-width="1.51"/><path d="M2092,735L1976,863L2101,879Z" fill="#575757" stroke="#575757" stroke-width="1.51"/><path d="M2079,989L2075,1122L2101,879Z" fill="#626262" stroke="#626262" stroke-width="1.51"/><path d="M1994,328L1943,409L2106,457Z" fill="#454545" stroke="#454545" stroke-width="1.51"/><path d="M2064,255L1994,328L2106,457Z" fill="#454545" stroke="#454545" stroke-width="1.51"/><path d="M2081,613L2092,735L2106,457Z" fill="#4d4d4d" stroke="#4d4d4d" stroke-width="1.51"/><path d="M2085,504L2081,613L2106,457Z" fill="#4a4a4a" stroke="#4a4a4a" stroke-width="1.51"/><path d="M2092,735L2101,879L2106,457Z" fill="#525252" stroke="#525252" stroke-width="1.51"/><path d="M2064,255L2106,457L2109,216Z" fill="#464646" stroke="#464646" stroke-width="1.51"/><path d="M2099,-36L1974,107L2118,80Z" fill="#404040" stroke="#404040" stroke-width="1.51"/><path d="M1974,107L2002,134L2118,80Z" fill="#414141" stroke="#414141" stroke-width="1.51"/><path d="M2106,457L2101,879L2118,80Z" fill="#494949" stroke="#494949" stroke-width="1.51"/><path d="M2002,134L2109,216L2118,80Z" fill="#434343" stroke="#434343" stroke-width="1.51"/><path d="M2109,216L2106,457L2118,80Z" fill="#454545" stroke="#454545" stroke-width="1.51"/><path d="M1993,-69L2099,-36L2119,-201Z" fill="#3e3e3e" stroke="#3e3e3e" stroke-width="1.51"/><path d="M2010,-206L1993,-69L2119,-201Z" fill="#3c3c3c" stroke="#3c3c3c" stroke-width="1.51"/><path d="M2099,-36L2118,80L2119,-201Z" fill="#414141" stroke="#414141" stroke-width="1.51"/><path d="M2081,613L1985,739L2092,735Z" fill="#515151" stroke="#515151" stroke-width="1.51"/><path d="M1976,863L2079,989L2101,879Z" fill="#5c5c5c" stroke="#5c5c5c" stroke-width="1.51"/><path d="M2002,134L2064,255L2109,216Z" fill="#434343" stroke="#434343" stroke-width="1.51"/><path d="M1976,863L2020,1009L2079,989Z" fill="#5d5d5d" stroke="#5d5d5d" stroke-width="1.51"/><path d="M1943,409L2085,504L2106,457Z" fill="#474747" stroke="#474747" stroke-width="1.51"/><path d="M1952,557L2081,613L2085,504Z" fill="#494949" stroke="#494949" stroke-width="1.51"/><path d="M2020,1009L1971,1094L2075,1122Z" fill="#636363" stroke="#636363" stroke-width="1.51"/><path d="M1949,1222L2052,1252L2075,1122Z" fill="#6a6a6a" stroke="#6a6a6a" stroke-width="1.51"/><path d="M1932,634L1985,739L2081,613Z" fill="#4d4d4d" stroke="#4d4d4d" stroke-width="1.51"/><path d="M1971,1094L1949,1222L2075,1122Z" fill="#666666" stroke="#666666" stroke-width="1.51"/><path d="M1943,409L1952,557L2085,504Z" fill="#464646" stroke="#464646" stroke-width="1.51"/><path d="M1952,557L1932,634L2081,613Z" fill="#4a4a4a" stroke="#4a4a4a" stroke-width="1.51"/><path d="M1704,-190L1864,-139L2010,-206Z" fill="#373737" stroke="#373737" stroke-width="1.51"/><path d="M2002,134L1994,328L2064,255Z" fill="#434343" stroke="#434343" stroke-width="1.51"/><path d="M1840,219L1994,328L2002,134Z" fill="#404040" stroke="#404040" stroke-width="1.51"/><path d="M1869,25L1974,107L1993,-69Z" fill="#3c3c3c" stroke="#3c3c3c" stroke-width="1.51"/><path d="M1873,-30L1869,25L1993,-69Z" fill="#3a3a3a" stroke="#3a3a3a" stroke-width="1.51"/><path d="M1840,219L1879,319L1994,328Z" fill="#3f3f3f" stroke="#3f3f3f" stroke-width="1.51"/><path d="M1864,-139L1993,-69L2010,-206Z" fill="#3a3a3a" stroke="#3a3a3a" stroke-width="1.51"/><path d="M1833,1021L1971,1094L2020,1009Z" fill="#5f5f5f" stroke="#5f5f5f" stroke-width="1.51"/><path d="M1862,893L1833,1021L2020,1009Z" fill="#5a5a5a" stroke="#5a5a5a" stroke-width="1.51"/><path d="M1976,863L1862,893L2020,1009Z" fill="#595959" stroke="#595959" stroke-width="1.51"/><path d="M1974,107L1840,219L2002,134Z" fill="#3e3e3e" stroke="#3e3e3e" stroke-width="1.51"/><path d="M1907,373L1943,409L1994,328Z" fill="#424242" stroke="#424242" stroke-width="1.51"/><path d="M1943,409L1853,528L1952,557Z" fill="#444444" stroke="#444444" stroke-width="1.51"/><path d="M1853,1182L1949,1222L1971,1094Z" fill="#656565" stroke="#656565" stroke-width="1.51"/><path d="M1820,732L1862,893L1976,863Z" fill="#525252" stroke="#525252" stroke-width="1.51"/><path d="M1820,732L1976,863L1985,739Z" fill="#515151" stroke="#515151" stroke-width="1.51"/><path d="M1864,-139L1873,-30L1993,-69Z" fill="#393939" stroke="#393939" stroke-width="1.51"/><path d="M1879,319L1907,373L1994,328Z" fill="#414141" stroke="#414141" stroke-width="1.51"/><path d="M1932,634L1820,732L1985,739Z" fill="#4c4c4c" stroke="#4c4c4c" stroke-width="1.51"/><path d="M1869,25L1840,219L1974,107Z" fill="#3c3c3c" stroke="#3c3c3c" stroke-width="1.51"/><path d="M1833,1021L1853,1182L1971,1094Z" fill="#606060" stroke="#606060" stroke-width="1.51"/><path d="M1836,644L1820,732L1932,634Z" fill="#494949" stroke="#494949" stroke-width="1.51"/><path d="M1907,373L1853,528L1943,409Z" fill="#424242" stroke="#424242" stroke-width="1.51"/><path d="M1853,1182L1865,1226L1949,1222Z" fill="#666666" stroke="#666666" stroke-width="1.51"/><path d="M1853,528L1932,634L1952,557Z" fill="#454545" stroke="#454545" stroke-width="1.51"/><path d="M1853,528L1836,644L1932,634Z" fill="#464646" stroke="#464646" stroke-width="1.51"/><path d="M1760,174L1840,219L1869,25Z" fill="#3a3a3a" stroke="#3a3a3a" stroke-width="1.51"/><path d="M1769,411L1853,528L1907,373Z" fill="#404040" stroke="#404040" stroke-width="1.51"/><path d="M1833,1021L1775,1170L1853,1182Z" fill="#5f5f5f" stroke="#5f5f5f" stroke-width="1.51"/><path d="M1820,732L1737,817L1862,893Z" fill="#4e4e4e" stroke="#4e4e4e" stroke-width="1.51"/><path d="M1879,319L1769,411L1907,373Z" fill="#3f3f3f" stroke="#3f3f3f" stroke-width="1.51"/><path d="M1786,574L1836,644L1853,528Z" fill="#434343" stroke="#434343" stroke-width="1.51"/><path d="M1737,817L1767,895L1862,893Z" fill="#515151" stroke="#515151" stroke-width="1.51"/><path d="M1767,895L1833,1021L1862,893Z" fill="#555555" stroke="#555555" stroke-width="1.51"/><path d="M1705,79L1760,174L1869,25Z" fill="#383838" stroke="#383838" stroke-width="1.51"/><path d="M1864,-139L1695,-106L1873,-30Z" fill="#363636" stroke="#363636" stroke-width="1.51"/><path d="M1840,219L1712,258L1879,319Z" fill="#3c3c3c" stroke="#3c3c3c" stroke-width="1.51"/><path d="M1712,258L1769,411L1879,319Z" fill="#3c3c3c" stroke="#3c3c3c" stroke-width="1.51"/><path d="M1705,79L1869,25L1873,-30Z" fill="#383838" stroke="#383838" stroke-width="1.51"/><path d="M1695,-106L1705,79L1873,-30Z" fill="#353535" stroke="#353535" stroke-width="1.51"/><path d="M1730,1033L1775,1170L1833,1021Z" fill="#5b5b5b" stroke="#5b5b5b" stroke-width="1.51"/><path d="M1775,1170L1704,1283L1865,1226Z" fill="#636363" stroke="#636363" stroke-width="1.51"/><path d="M1853,1182L1775,1170L1865,1226Z" fill="#636363" stroke="#636363" stroke-width="1.51"/><path d="M1704,-190L1695,-106L1864,-139Z" fill="#333333" stroke="#333333" stroke-width="1.51"/><path d="M1772,705L1820,732L1836,644Z" fill="#484848" stroke="#484848" stroke-width="1.51"/><path d="M1769,411L1786,574L1853,528Z" fill="#404040" stroke="#404040" stroke-width="1.51"/><path d="M1767,895L1730,1033L1833,1021Z" fill="#565656" stroke="#565656" stroke-width="1.51"/><path d="M1760,174L1712,258L1840,219Z" fill="#3a3a3a" stroke="#3a3a3a" stroke-width="1.51"/><path d="M1786,574L1772,705L1836,644Z" fill="#454545" stroke="#454545" stroke-width="1.51"/><path d="M1695,-106L1635,-23L1705,79Z" fill="#333333" stroke="#333333" stroke-width="1.51"/><path d="M1769,411L1648,436L1786,574Z" fill="#3d3d3d" stroke="#3d3d3d" stroke-width="1.51"/><path d="M1772,705L1737,817L1820,732Z" fill="#4a4a4a" stroke="#4a4a4a" stroke-width="1.51"/><path d="M1660,990L1730,1033L1767,895Z" fill="#535353" stroke="#535353" stroke-width="1.51"/><path d="M1712,258L1648,436L1769,411Z" fill="#3b3b3b" stroke="#3b3b3b" stroke-width="1.51"/><path d="M1667,706L1737,817L1772,705Z" fill="#484848" stroke="#484848" stroke-width="1.51"/><path d="M1730,1033L1607,1106L1775,1170Z" fill="#5a5a5a" stroke="#5a5a5a" stroke-width="1.51"/><path d="M1648,436L1625,536L1786,574Z" fill="#3c3c3c" stroke="#3c3c3c" stroke-width="1.51"/><path d="M1667,706L1772,705L1786,574Z" fill="#444444" stroke="#444444" stroke-width="1.51"/><path d="M1625,536L1667,706L1786,574Z" fill="#404040" stroke="#404040" stroke-width="1.51"/><path d="M1607,1106L1704,1283L1775,1170Z" fill="#5e5e5e" stroke="#5e5e5e" stroke-width="1.51"/><path d="M1600,292L1648,436L1712,258Z" fill="#383838" stroke="#383838" stroke-width="1.51"/><path d="M1667,706L1649,801L1737,817Z" fill="#484848" stroke="#484848" stroke-width="1.51"/><path d="M1737,817L1618,853L1767,895Z" fill="#4d4d4d" stroke="#4d4d4d" stroke-width="1.51"/><path d="M1618,853L1660,990L1767,895Z" fill="#4f4f4f" stroke="#4f4f4f" stroke-width="1.51"/><path d="M1607,1106L1572,1232L1704,1283Z" fill="#5d5d5d" stroke="#5d5d5d" stroke-width="1.51"/><path d="M1595,155L1712,258L1760,174Z" fill="#373737" stroke="#373737" stroke-width="1.51"/><path d="M1705,79L1595,155L1760,174Z" fill="#363636" stroke="#363636" stroke-width="1.51"/><path d="M1649,801L1618,853L1737,817Z" fill="#4a4a4a" stroke="#4a4a4a" stroke-width="1.51"/><path d="M1660,990L1607,1106L1730,1033Z" fill="#555555" stroke="#555555" stroke-width="1.51"/><path d="M1625,536L1545,663L1667,706Z" fill="#3f3f3f" stroke="#3f3f3f" stroke-width="1.51"/><path d="M1591,-209L1695,-106L1704,-190Z" fill="#303030" stroke="#303030" stroke-width="1.51"/><path d="M1635,-23L1583,73L1705,79Z" fill="#333333" stroke="#333333" stroke-width="1.51"/><path d="M1595,155L1600,292L1712,258Z" fill="#363636" stroke="#363636" stroke-width="1.51"/><path d="M1583,73L1595,155L1705,79Z" fill="#343434" stroke="#343434" stroke-width="1.51"/><path d="M1572,1232L1545,1281L1704,1283Z" fill="#5f5f5f" stroke="#5f5f5f" stroke-width="1.51"/><path d="M1531,-79L1635,-23L1695,-106Z" fill="#303030" stroke="#303030" stroke-width="1.51"/><path d="M1591,-209L1531,-79L1695,-106Z" fill="#2f2f2f" stroke="#2f2f2f" stroke-width="1.51"/><path d="M1520,-162L1531,-79L1591,-209Z" fill="#2d2d2d" stroke="#2d2d2d" stroke-width="1.51"/><path d="M1618,853L1474,930L1660,990Z" fill="#4c4c4c" stroke="#4c4c4c" stroke-width="1.51"/><path d="M1546,1056L1607,1106L1660,990Z" fill="#545454" stroke="#545454" stroke-width="1.51"/><path d="M1514,776L1649,801L1667,706Z" fill="#454545" stroke="#454545" stroke-width="1.51"/><path d="M1545,663L1514,776L1667,706Z" fill="#424242" stroke="#424242" stroke-width="1.51"/><path d="M1600,292L1520,459L1648,436Z" fill="#373737" stroke="#373737" stroke-width="1.51"/><path d="M1474,930L1546,1056L1660,990Z" fill="#4f4f4f" stroke="#4f4f4f" stroke-width="1.51"/><path d="M1292,-212L1520,-162L1591,-209Z" fill="#2a2a2a" stroke="#2a2a2a" stroke-width="1.51"/><path d="M1520,459L1625,536L1648,436Z" fill="#393939" stroke="#393939" stroke-width="1.51"/><path d="M1514,776L1618,853L1649,801Z" fill="#474747" stroke="#474747" stroke-width="1.51"/><path d="M1501,288L1520,459L1600,292Z" fill="#353535" stroke="#353535" stroke-width="1.51"/><path d="M1521,1112L1572,1232L1607,1106Z" fill="#575757" stroke="#575757" stroke-width="1.51"/><path d="M1531,-79L1583,73L1635,-23Z" fill="#303030" stroke="#303030" stroke-width="1.51"/><path d="M1595,155L1501,288L1600,292Z" fill="#343434" stroke="#343434" stroke-width="1.51"/><path d="M1467,499L1545,663L1625,536Z" fill="#393939" stroke="#393939" stroke-width="1.51"/><path d="M1520,459L1467,499L1625,536Z" fill="#373737" stroke="#373737" stroke-width="1.51"/><path d="M1531,-79L1499,79L1583,73Z" fill="#2f2f2f" stroke="#2f2f2f" stroke-width="1.51"/><path d="M1514,776L1474,930L1618,853Z" fill="#474747" stroke="#474747" stroke-width="1.51"/><path d="M1292,-212L1420,-141L1520,-162Z" fill="#282828" stroke="#282828" stroke-width="1.51"/><path d="M1461,149L1501,288L1595,155Z" fill="#313131" stroke="#313131" stroke-width="1.51"/><path d="M1546,1056L1521,1112L1607,1106Z" fill="#545454" stroke="#545454" stroke-width="1.51"/><path d="M1583,73L1499,79L1595,155Z" fill="#313131" stroke="#313131" stroke-width="1.51"/><path d="M1499,79L1461,149L1595,155Z" fill="#303030" stroke="#303030" stroke-width="1.51"/><path d="M1423,12L1499,79L1531,-79Z" fill="#2d2d2d" stroke="#2d2d2d" stroke-width="1.51"/><path d="M1467,499L1416,520L1545,663Z" fill="#373737" stroke="#373737" stroke-width="1.51"/><path d="M1474,930L1427,1019L1546,1056Z" fill="#4d4d4d" stroke="#4d4d4d" stroke-width="1.51"/><path d="M1521,1112L1545,1281L1572,1232Z" fill="#5a5a5a" stroke="#5a5a5a" stroke-width="1.51"/><path d="M325,1265L-18,1270L493,1294Z" fill="#424242" stroke="#424242" stroke-width="1.51"/><path d="M1396,869L1474,930L1514,776Z" fill="#454545" stroke="#454545" stroke-width="1.51"/><path d="M1501,288L1403,424L1520,459Z" fill="#333333" stroke="#333333" stroke-width="1.51"/><path d="M1416,520L1351,678L1545,663Z" fill="#383838" stroke="#383838" stroke-width="1.51"/><path d="M1388,761L1514,776L1545,663Z" fill="#3f3f3f" stroke="#3f3f3f" stroke-width="1.51"/><path d="M1351,678L1388,761L1545,663Z" fill="#3c3c3c" stroke="#3c3c3c" stroke-width="1.51"/><path d="M1521,1112L1363,1280L1545,1281Z" fill="#585858" stroke="#585858" stroke-width="1.51"/><path d="M1427,1019L1521,1112L1546,1056Z" fill="#515151" stroke="#515151" stroke-width="1.51"/><path d="M1351,1096L1363,1280L1521,1112Z" fill="#535353" stroke="#535353" stroke-width="1.51"/><path d="M1520,-162L1420,-141L1531,-79Z" fill="#2b2b2b" stroke="#2b2b2b" stroke-width="1.51"/><path d="M1420,-141L1423,12L1531,-79Z" fill="#2b2b2b" stroke="#2b2b2b" stroke-width="1.51"/><path d="M1461,149L1371,256L1501,288Z" fill="#2f2f2f" stroke="#2f2f2f" stroke-width="1.51"/><path d="M1388,761L1396,869L1514,776Z" fill="#414141" stroke="#414141" stroke-width="1.51"/><path d="M1403,424L1467,499L1520,459Z" fill="#353535" stroke="#353535" stroke-width="1.51"/><path d="M1427,1019L1351,1096L1521,1112Z" fill="#4f4f4f" stroke="#4f4f4f" stroke-width="1.51"/><path d="M1371,256L1403,424L1501,288Z" fill="#303030" stroke="#303030" stroke-width="1.51"/><path d="M1423,12L1461,149L1499,79Z" fill="#2e2e2e" stroke="#2e2e2e" stroke-width="1.51"/><path d="M1420,-141L1351,-96L1423,12Z" fill="#292929" stroke="#292929" stroke-width="1.51"/><path d="M1423,12L1344,190L1461,149Z" fill="#2d2d2d" stroke="#2d2d2d" stroke-width="1.51"/><path d="M1344,190L1371,256L1461,149Z" fill="#2d2d2d" stroke="#2d2d2d" stroke-width="1.51"/><path d="M1403,424L1416,520L1467,499Z" fill="#333333" stroke="#333333" stroke-width="1.51"/><path d="M1396,869L1427,1019L1474,930Z" fill="#484848" stroke="#484848" stroke-width="1.51"/><path d="M1295,36L1344,190L1423,12Z" fill="#2a2a2a" stroke="#2a2a2a" stroke-width="1.51"/><path d="M1371,256L1300,290L1403,424Z" fill="#2f2f2f" stroke="#2f2f2f" stroke-width="1.51"/><path d="M1218,540L1351,678L1416,520Z" fill="#333333" stroke="#333333" stroke-width="1.51"/><path d="M1351,-96L1295,36L1423,12Z" fill="#292929" stroke="#292929" stroke-width="1.51"/><path d="M1223,975L1351,1096L1427,1019Z" fill="#494949" stroke="#494949" stroke-width="1.51"/><path d="M1253,904L1223,975L1427,1019Z" fill="#454545" stroke="#454545" stroke-width="1.51"/><path d="M1396,869L1253,904L1427,1019Z" fill="#454545" stroke="#454545" stroke-width="1.51"/><path d="M1351,1096L1282,1103L1363,1280Z" fill="#505050" stroke="#505050" stroke-width="1.51"/><path d="M1403,424L1256,460L1416,520Z" fill="#313131" stroke="#313131" stroke-width="1.51"/><path d="M1292,-212L1351,-96L1420,-141Z" fill="#272727" stroke="#272727" stroke-width="1.51"/><path d="M1256,460L1218,540L1416,520Z" fill="#303030" stroke="#303030" stroke-width="1.51"/><path d="M1388,761L1283,765L1396,869Z" fill="#3f3f3f" stroke="#3f3f3f" stroke-width="1.51"/><path d="M1300,290L1256,460L1403,424Z" fill="#2e2e2e" stroke="#2e2e2e" stroke-width="1.51"/><path d="M1223,975L1282,1103L1351,1096Z" fill="#494949" stroke="#494949" stroke-width="1.51"/><path d="M1282,1103L1244,1282L1363,1280Z" fill="#525252" stroke="#525252" stroke-width="1.51"/><path d="M1283,765L1253,904L1396,869Z" fill="#3f3f3f" stroke="#3f3f3f" stroke-width="1.51"/><path d="M1351,678L1283,765L1388,761Z" fill="#3b3b3b" stroke="#3b3b3b" stroke-width="1.51"/><path d="M1045,-225L1176,-174L1292,-212Z" fill="#212121" stroke="#212121" stroke-width="1.51"/><path d="M1220,-39L1295,36L1351,-96Z" fill="#272727" stroke="#272727" stroke-width="1.51"/><path d="M1344,190L1300,290L1371,256Z" fill="#2d2d2d" stroke="#2d2d2d" stroke-width="1.51"/><path d="M1186,97L1237,212L1295,36Z" fill="#282828" stroke="#282828" stroke-width="1.51"/><path d="M1295,36L1237,212L1344,190Z" fill="#2a2a2a" stroke="#2a2a2a" stroke-width="1.51"/><path d="M1218,540L1214,704L1351,678Z" fill="#343434" stroke="#343434" stroke-width="1.51"/><path d="M1237,212L1300,290L1344,190Z" fill="#2b2b2b" stroke="#2b2b2b" stroke-width="1.51"/><path d="M1214,704L1283,765L1351,678Z" fill="#383838" stroke="#383838" stroke-width="1.51"/><path d="M1292,-212L1220,-39L1351,-96Z" fill="#262626" stroke="#262626" stroke-width="1.51"/><path d="M1176,-174L1179,-72L1220,-39Z" fill="#232323" stroke="#232323" stroke-width="1.51"/><path d="M1176,-174L1220,-39L1292,-212Z" fill="#242424" stroke="#242424" stroke-width="1.51"/><path d="M1170,673L1214,704L1218,540Z" fill="#323232" stroke="#323232" stroke-width="1.51"/><path d="M1223,975L1167,999L1282,1103Z" fill="#464646" stroke="#464646" stroke-width="1.51"/><path d="M1137,1234L1244,1282L1282,1103Z" fill="#4f4f4f" stroke="#4f4f4f" stroke-width="1.51"/><path d="M1140,786L1253,904L1283,765Z" fill="#3b3b3b" stroke="#3b3b3b" stroke-width="1.51"/><path d="M1149,285L1256,460L1300,290Z" fill="#2b2b2b" stroke="#2b2b2b" stroke-width="1.51"/><path d="M1237,212L1149,285L1300,290Z" fill="#2a2a2a" stroke="#2a2a2a" stroke-width="1.51"/><path d="M527,-212L678,-192L887,-227Z" fill="#181818" stroke="#181818" stroke-width="1.51"/><path d="M1137,1234L997,1291L1244,1282Z" fill="#4f4f4f" stroke="#4f4f4f" stroke-width="1.51"/><path d="M1220,-39L1186,97L1295,36Z" fill="#272727" stroke="#272727" stroke-width="1.51"/><path d="M1149,285L1096,454L1256,460Z" fill="#2a2a2a" stroke="#2a2a2a" stroke-width="1.51"/><path d="M1093,1104L1137,1234L1282,1103Z" fill="#4a4a4a" stroke="#4a4a4a" stroke-width="1.51"/><path d="M1214,704L1140,786L1283,765Z" fill="#373737" stroke="#373737" stroke-width="1.51"/><path d="M1167,999L1093,1104L1282,1103Z" fill="#474747" stroke="#474747" stroke-width="1.51"/><path d="M1186,97L1142,173L1237,212Z" fill="#272727" stroke="#272727" stroke-width="1.51"/><path d="M1142,931L1223,975L1253,904Z" fill="#414141" stroke="#414141" stroke-width="1.51"/><path d="M1140,786L1142,931L1253,904Z" fill="#3c3c3c" stroke="#3c3c3c" stroke-width="1.51"/><path d="M1132,528L1218,540L1256,460Z" fill="#2d2d2d" stroke="#2d2d2d" stroke-width="1.51"/><path d="M1096,454L1132,528L1256,460Z" fill="#2b2b2b" stroke="#2b2b2b" stroke-width="1.51"/><path d="M1132,528L1170,673L1218,540Z" fill="#2e2e2e" stroke="#2e2e2e" stroke-width="1.51"/><path d="M1142,173L1149,285L1237,212Z" fill="#272727" stroke="#272727" stroke-width="1.51"/><path d="M1179,-72L1186,97L1220,-39Z" fill="#252525" stroke="#252525" stroke-width="1.51"/><path d="M1142,931L1167,999L1223,975Z" fill="#414141" stroke="#414141" stroke-width="1.51"/><path d="M1170,673L1140,786L1214,704Z" fill="#353535" stroke="#353535" stroke-width="1.51"/><path d="M1179,-72L1023,98L1186,97Z" fill="#232323" stroke="#232323" stroke-width="1.51"/><path d="M1044,407L1096,454L1149,285Z" fill="#272727" stroke="#272727" stroke-width="1.51"/><path d="M1132,528L1040,692L1170,673Z" fill="#2e2e2e" stroke="#2e2e2e" stroke-width="1.51"/><path d="M1176,-174L1045,-225L1179,-72Z" fill="#212121" stroke="#212121" stroke-width="1.51"/><path d="M1045,-225L976,-51L1179,-72Z" fill="#1f1f1f" stroke="#1f1f1f" stroke-width="1.51"/><path d="M976,-51L1023,98L1179,-72Z" fill="#202020" stroke="#202020" stroke-width="1.51"/><path d="M1023,98L1142,173L1186,97Z" fill="#242424" stroke="#242424" stroke-width="1.51"/><path d="M659,1287L493,1294L762,1307Z" fill="#474747" stroke="#474747" stroke-width="1.51"/><path d="M1040,692L1140,786L1170,673Z" fill="#333333" stroke="#333333" stroke-width="1.51"/><path d="M1038,1023L1093,1104L1167,999Z" fill="#424242" stroke="#424242" stroke-width="1.51"/><path d="M1140,786L1007,774L1142,931Z" fill="#383838" stroke="#383838" stroke-width="1.51"/><path d="M1142,931L1038,1023L1167,999Z" fill="#404040" stroke="#404040" stroke-width="1.51"/><path d="M1026,510L1040,692L1132,528Z" fill="#2a2a2a" stroke="#2a2a2a" stroke-width="1.51"/><path d="M1093,1104L1002,1165L1137,1234Z" fill="#484848" stroke="#484848" stroke-width="1.51"/><path d="M1007,774L986,945L1142,931Z" fill="#393939" stroke="#393939" stroke-width="1.51"/><path d="M988,325L1044,407L1149,285Z" fill="#262626" stroke="#262626" stroke-width="1.51"/><path d="M1142,173L983,197L1149,285Z" fill="#252525" stroke="#252525" stroke-width="1.51"/><path d="M983,197L988,325L1149,285Z" fill="#242424" stroke="#242424" stroke-width="1.51"/><path d="M1040,692L1007,774L1140,786Z" fill="#333333" stroke="#333333" stroke-width="1.51"/><path d="M1023,98L983,197L1142,173Z" fill="#222222" stroke="#222222" stroke-width="1.51"/><path d="M986,945L1038,1023L1142,931Z" fill="#3e3e3e" stroke="#3e3e3e" stroke-width="1.51"/><path d="M1002,1165L997,1291L1137,1234Z" fill="#4a4a4a" stroke="#4a4a4a" stroke-width="1.51"/><path d="M1096,454L1026,510L1132,528Z" fill="#292929" stroke="#292929" stroke-width="1.51"/><path d="M1044,407L1026,510L1096,454Z" fill="#272727" stroke="#272727" stroke-width="1.51"/><path d="M1038,1023L1002,1165L1093,1104Z" fill="#444444" stroke="#444444" stroke-width="1.51"/><path d="M919,877L986,945L1007,774Z" fill="#363636" stroke="#363636" stroke-width="1.51"/><path d="M976,-51L873,64L1023,98Z" fill="#1e1e1e" stroke="#1e1e1e" stroke-width="1.51"/><path d="M853,563L867,639L1026,510Z" fill="#272727" stroke="#272727" stroke-width="1.51"/><path d="M939,1061L1002,1165L1038,1023Z" fill="#414141" stroke="#414141" stroke-width="1.51"/><path d="M1026,510L867,639L1040,692Z" fill="#2a2a2a" stroke="#2a2a2a" stroke-width="1.51"/><path d="M882,445L1026,510L1044,407Z" fill="#252525" stroke="#252525" stroke-width="1.51"/><path d="M891,-101L976,-51L1045,-225Z" fill="#1d1d1d" stroke="#1d1d1d" stroke-width="1.51"/><path d="M887,-227L891,-101L1045,-225Z" fill="#1b1b1b" stroke="#1b1b1b" stroke-width="1.51"/><path d="M988,325L917,337L1044,407Z" fill="#232323" stroke="#232323" stroke-width="1.51"/><path d="M917,337L882,445L1044,407Z" fill="#242424" stroke="#242424" stroke-width="1.51"/><path d="M932,1177L997,1291L1002,1165Z" fill="#474747" stroke="#474747" stroke-width="1.51"/><path d="M887,770L1007,774L1040,692Z" fill="#303030" stroke="#303030" stroke-width="1.51"/><path d="M867,639L887,770L1040,692Z" fill="#2d2d2d" stroke="#2d2d2d" stroke-width="1.51"/><path d="M986,945L939,1061L1038,1023Z" fill="#3d3d3d" stroke="#3d3d3d" stroke-width="1.51"/><path d="M873,64L912,137L1023,98Z" fill="#1f1f1f" stroke="#1f1f1f" stroke-width="1.51"/><path d="M912,137L983,197L1023,98Z" fill="#202020" stroke="#202020" stroke-width="1.51"/><path d="M882,445L853,563L1026,510Z" fill="#252525" stroke="#252525" stroke-width="1.51"/><path d="M983,197L917,337L988,325Z" fill="#222222" stroke="#222222" stroke-width="1.51"/><path d="M932,1177L876,1219L997,1291Z" fill="#474747" stroke="#474747" stroke-width="1.51"/><path d="M876,1219L762,1307L997,1291Z" fill="#494949" stroke="#494949" stroke-width="1.51"/><path d="M939,1061L932,1177L1002,1165Z" fill="#434343" stroke="#434343" stroke-width="1.51"/><path d="M887,770L919,877L1007,774Z" fill="#333333" stroke="#333333" stroke-width="1.51"/><path d="M912,137L917,337L983,197Z" fill="#212121" stroke="#212121" stroke-width="1.51"/><path d="M824,998L939,1061L986,945Z" fill="#3b3b3b" stroke="#3b3b3b" stroke-width="1.51"/><path d="M919,877L824,998L986,945Z" fill="#383838" stroke="#383838" stroke-width="1.51"/><path d="M912,137L795,175L917,337Z" fill="#202020" stroke="#202020" stroke-width="1.51"/><path d="M891,-101L873,64L976,-51Z" fill="#1d1d1d" stroke="#1d1d1d" stroke-width="1.51"/><path d="M-24,-215L142,-165L527,-212Z" fill="#131313" stroke="#131313" stroke-width="1.51"/><path d="M795,175L750,276L917,337Z" fill="#202020" stroke="#202020" stroke-width="1.51"/><path d="M737,1097L876,1219L932,1177Z" fill="#434343" stroke="#434343" stroke-width="1.51"/><path d="M737,1097L932,1177L939,1061Z" fill="#404040" stroke="#404040" stroke-width="1.51"/><path d="M824,998L737,1097L939,1061Z" fill="#3d3d3d" stroke="#3d3d3d" stroke-width="1.51"/><path d="M678,-192L764,-172L887,-227Z" fill="#191919" stroke="#191919" stroke-width="1.51"/><path d="M779,-94L873,64L891,-101Z" fill="#1c1c1c" stroke="#1c1c1c" stroke-width="1.51"/><path d="M887,-227L764,-172L891,-101Z" fill="#1a1a1a" stroke="#1a1a1a" stroke-width="1.51"/><path d="M750,276L785,379L917,337Z" fill="#212121" stroke="#212121" stroke-width="1.51"/><path d="M785,379L882,445L917,337Z" fill="#222222" stroke="#222222" stroke-width="1.51"/><path d="M887,770L755,861L919,877Z" fill="#333333" stroke="#333333" stroke-width="1.51"/><path d="M755,861L824,998L919,877Z" fill="#363636" stroke="#363636" stroke-width="1.51"/><path d="M867,639L793,642L887,770Z" fill="#2c2c2c" stroke="#2c2c2c" stroke-width="1.51"/><path d="M873,64L795,175L912,137Z" fill="#1e1e1e" stroke="#1e1e1e" stroke-width="1.51"/><path d="M779,-94L755,87L873,64Z" fill="#1c1c1c" stroke="#1c1c1c" stroke-width="1.51"/><path d="M793,642L737,794L887,770Z" fill="#2e2e2e" stroke="#2e2e2e" stroke-width="1.51"/><path d="M737,794L755,861L887,770Z" fill="#313131" stroke="#313131" stroke-width="1.51"/><path d="M764,-172L779,-94L891,-101Z" fill="#1b1b1b" stroke="#1b1b1b" stroke-width="1.51"/><path d="M755,87L795,175L873,64Z" fill="#1e1e1e" stroke="#1e1e1e" stroke-width="1.51"/><path d="M738,570L853,563L882,445Z" fill="#242424" stroke="#242424" stroke-width="1.51"/><path d="M785,379L738,570L882,445Z" fill="#232323" stroke="#232323" stroke-width="1.51"/><path d="M853,563L793,642L867,639Z" fill="#282828" stroke="#282828" stroke-width="1.51"/><path d="M737,1097L762,1307L876,1219Z" fill="#454545" stroke="#454545" stroke-width="1.51"/><path d="M142,-165L428,-174L527,-212Z" fill="#151515" stroke="#151515" stroke-width="1.51"/><path d="M697,407L738,570L785,379Z" fill="#222222" stroke="#222222" stroke-width="1.51"/><path d="M738,570L793,642L853,563Z" fill="#272727" stroke="#272727" stroke-width="1.51"/><path d="M737,1097L659,1287L762,1307Z" fill="#454545" stroke="#454545" stroke-width="1.51"/><path d="M681,704L737,794L793,642Z" fill="#2b2b2b" stroke="#2b2b2b" stroke-width="1.51"/><path d="M755,861L651,930L824,998Z" fill="#363636" stroke="#363636" stroke-width="1.51"/><path d="M651,930L698,1056L824,998Z" fill="#393939" stroke="#393939" stroke-width="1.51"/><path d="M698,1056L737,1097L824,998Z" fill="#3c3c3c" stroke="#3c3c3c" stroke-width="1.51"/><path d="M697,407L650,517L738,570Z" fill="#232323" stroke="#232323" stroke-width="1.51"/><path d="M617,-77L626,91L755,87Z" fill="#1b1b1b" stroke="#1b1b1b" stroke-width="1.51"/><path d="M617,-77L755,87L779,-94Z" fill="#1b1b1b" stroke="#1b1b1b" stroke-width="1.51"/><path d="M750,276L660,316L785,379Z" fill="#202020" stroke="#202020" stroke-width="1.51"/><path d="M660,316L697,407L785,379Z" fill="#212121" stroke="#212121" stroke-width="1.51"/><path d="M755,87L673,212L795,175Z" fill="#1e1e1e" stroke="#1e1e1e" stroke-width="1.51"/><path d="M673,212L750,276L795,175Z" fill="#1f1f1f" stroke="#1f1f1f" stroke-width="1.51"/><path d="M738,570L681,704L793,642Z" fill="#282828" stroke="#282828" stroke-width="1.51"/><path d="M636,1097L584,1169L659,1287Z" fill="#414141" stroke="#414141" stroke-width="1.51"/><path d="M636,1097L659,1287L737,1097Z" fill="#404040" stroke="#404040" stroke-width="1.51"/><path d="M210,1245L-18,1270L325,1265Z" fill="#404040" stroke="#404040" stroke-width="1.51"/><path d="M764,-172L678,-192L779,-94Z" fill="#1a1a1a" stroke="#1a1a1a" stroke-width="1.51"/><path d="M678,-192L617,-77L779,-94Z" fill="#1a1a1a" stroke="#1a1a1a" stroke-width="1.51"/><path d="M626,91L673,212L755,87Z" fill="#1c1c1c" stroke="#1c1c1c" stroke-width="1.51"/><path d="M681,704L665,780L737,794Z" fill="#2e2e2e" stroke="#2e2e2e" stroke-width="1.51"/><path d="M737,794L665,780L755,861Z" fill="#303030" stroke="#303030" stroke-width="1.51"/><path d="M665,780L651,930L755,861Z" fill="#323232" stroke="#323232" stroke-width="1.51"/><path d="M673,212L660,316L750,276Z" fill="#1f1f1f" stroke="#1f1f1f" stroke-width="1.51"/><path d="M569,659L681,704L738,570Z" fill="#282828" stroke="#282828" stroke-width="1.51"/><path d="M650,517L569,659L738,570Z" fill="#252525" stroke="#252525" stroke-width="1.51"/><path d="M698,1056L636,1097L737,1097Z" fill="#3d3d3d" stroke="#3d3d3d" stroke-width="1.51"/><path d="M142,-165L307,-148L428,-174Z" fill="#151515" stroke="#151515" stroke-width="1.51"/><path d="M617,-77L537,41L626,91Z" fill="#1a1a1a" stroke="#1a1a1a" stroke-width="1.51"/><path d="M559,902L651,930L665,780Z" fill="#323232" stroke="#323232" stroke-width="1.51"/><path d="M568,790L559,902L665,780Z" fill="#303030" stroke="#303030" stroke-width="1.51"/><path d="M660,316L530,458L697,407Z" fill="#202020" stroke="#202020" stroke-width="1.51"/><path d="M530,458L650,517L697,407Z" fill="#212121" stroke="#212121" stroke-width="1.51"/><path d="M651,930L576,1038L698,1056Z" fill="#393939" stroke="#393939" stroke-width="1.51"/><path d="M576,1038L636,1097L698,1056Z" fill="#3b3b3b" stroke="#3b3b3b" stroke-width="1.51"/><path d="M548,518L569,659L650,517Z" fill="#232323" stroke="#232323" stroke-width="1.51"/><path d="M501,254L660,316L673,212Z" fill="#1e1e1e" stroke="#1e1e1e" stroke-width="1.51"/><path d="M527,-212L617,-77L678,-192Z" fill="#181818" stroke="#181818" stroke-width="1.51"/><path d="M568,790L665,780L681,704Z" fill="#2d2d2d" stroke="#2d2d2d" stroke-width="1.51"/><path d="M569,659L568,790L681,704Z" fill="#2b2b2b" stroke="#2b2b2b" stroke-width="1.51"/><path d="M626,91L494,214L673,212Z" fill="#1d1d1d" stroke="#1d1d1d" stroke-width="1.51"/><path d="M494,214L501,254L673,212Z" fill="#1d1d1d" stroke="#1d1d1d" stroke-width="1.51"/><path d="M530,458L548,518L650,517Z" fill="#212121" stroke="#212121" stroke-width="1.51"/><path d="M501,254L530,458L660,316Z" fill="#1f1f1f" stroke="#1f1f1f" stroke-width="1.51"/><path d="M559,902L576,1038L651,930Z" fill="#363636" stroke="#363636" stroke-width="1.51"/><path d="M584,1169L493,1294L659,1287Z" fill="#444444" stroke="#444444" stroke-width="1.51"/><path d="M527,-212L505,-99L617,-77Z" fill="#181818" stroke="#181818" stroke-width="1.51"/><path d="M461,132L494,214L626,91Z" fill="#1b1b1b" stroke="#1b1b1b" stroke-width="1.51"/><path d="M576,1038L584,1169L636,1097Z" fill="#3d3d3d" stroke="#3d3d3d" stroke-width="1.51"/><path d="M501,254L464,271L530,458Z" fill="#1e1e1e" stroke="#1e1e1e" stroke-width="1.51"/><path d="M505,-99L537,41L617,-77Z" fill="#191919" stroke="#191919" stroke-width="1.51"/><path d="M537,41L461,132L626,91Z" fill="#1b1b1b" stroke="#1b1b1b" stroke-width="1.51"/><path d="M464,271L424,409L530,458Z" fill="#1e1e1e" stroke="#1e1e1e" stroke-width="1.51"/><path d="M548,518L439,508L569,659Z" fill="#222222" stroke="#222222" stroke-width="1.51"/><path d="M427,740L568,790L569,659Z" fill="#2a2a2a" stroke="#2a2a2a" stroke-width="1.51"/><path d="M559,902L414,999L576,1038Z" fill="#363636" stroke="#363636" stroke-width="1.51"/><path d="M414,999L386,1125L576,1038Z" fill="#393939" stroke="#393939" stroke-width="1.51"/><path d="M576,1038L386,1125L584,1169Z" fill="#3d3d3d" stroke="#3d3d3d" stroke-width="1.51"/><path d="M386,1125L493,1294L584,1169Z" fill="#404040" stroke="#404040" stroke-width="1.51"/><path d="M27,1255L-18,1270L210,1245Z" fill="#3f3f3f" stroke="#3f3f3f" stroke-width="1.51"/><path d="M427,740L559,902L568,790Z" fill="#2e2e2e" stroke="#2e2e2e" stroke-width="1.51"/><path d="M439,508L376,689L569,659Z" fill="#242424" stroke="#242424" stroke-width="1.51"/><path d="M427,740L372,923L559,902Z" fill="#2f2f2f" stroke="#2f2f2f" stroke-width="1.51"/><path d="M376,689L427,740L569,659Z" fill="#282828" stroke="#282828" stroke-width="1.51"/><path d="M386,1125L373,1254L493,1294Z" fill="#414141" stroke="#414141" stroke-width="1.51"/><path d="M505,-99L415,-54L537,41Z" fill="#191919" stroke="#191919" stroke-width="1.51"/><path d="M372,923L414,999L559,902Z" fill="#343434" stroke="#343434" stroke-width="1.51"/><path d="M373,1254L325,1265L493,1294Z" fill="#444444" stroke="#444444" stroke-width="1.51"/><path d="M428,-174L505,-99L527,-212Z" fill="#161616" stroke="#161616" stroke-width="1.51"/><path d="M530,458L439,508L548,518Z" fill="#212121" stroke="#212121" stroke-width="1.51"/><path d="M396,104L461,132L537,41Z" fill="#1a1a1a" stroke="#1a1a1a" stroke-width="1.51"/><path d="M415,-54L396,104L537,41Z" fill="#191919" stroke="#191919" stroke-width="1.51"/><path d="M424,409L439,508L530,458Z" fill="#1f1f1f" stroke="#1f1f1f" stroke-width="1.51"/><path d="M428,-174L415,-54L505,-99Z" fill="#171717" stroke="#171717" stroke-width="1.51"/><path d="M494,214L464,271L501,254Z" fill="#1c1c1c" stroke="#1c1c1c" stroke-width="1.51"/><path d="M339,33L396,104L415,-54Z" fill="#181818" stroke="#181818" stroke-width="1.51"/><path d="M321,221L464,271L494,214Z" fill="#1c1c1c" stroke="#1c1c1c" stroke-width="1.51"/><path d="M461,132L321,221L494,214Z" fill="#1b1b1b" stroke="#1b1b1b" stroke-width="1.51"/><path d="M327,902L372,923L427,740Z" fill="#2e2e2e" stroke="#2e2e2e" stroke-width="1.51"/><path d="M314,656L376,689L439,508Z" fill="#232323" stroke="#232323" stroke-width="1.51"/><path d="M323,492L314,656L439,508Z" fill="#202020" stroke="#202020" stroke-width="1.51"/><path d="M396,104L321,221L461,132Z" fill="#1a1a1a" stroke="#1a1a1a" stroke-width="1.51"/><path d="M322,288L424,409L464,271Z" fill="#1d1d1d" stroke="#1d1d1d" stroke-width="1.51"/><path d="M321,221L322,288L464,271Z" fill="#1b1b1b" stroke="#1b1b1b" stroke-width="1.51"/><path d="M319,1110L386,1125L414,999Z" fill="#393939" stroke="#393939" stroke-width="1.51"/><path d="M253,813L327,902L427,740Z" fill="#2d2d2d" stroke="#2d2d2d" stroke-width="1.51"/><path d="M307,-148L415,-54L428,-174Z" fill="#161616" stroke="#161616" stroke-width="1.51"/><path d="M424,409L323,492L439,508Z" fill="#1f1f1f" stroke="#1f1f1f" stroke-width="1.51"/><path d="M376,689L253,813L427,740Z" fill="#2a2a2a" stroke="#2a2a2a" stroke-width="1.51"/><path d="M322,288L279,464L424,409Z" fill="#1d1d1d" stroke="#1d1d1d" stroke-width="1.51"/><path d="M272,1044L319,1110L414,999Z" fill="#383838" stroke="#383838" stroke-width="1.51"/><path d="M279,464L323,492L424,409Z" fill="#1e1e1e" stroke="#1e1e1e" stroke-width="1.51"/><path d="M282,-42L339,33L415,-54Z" fill="#181818" stroke="#181818" stroke-width="1.51"/><path d="M307,-148L282,-42L415,-54Z" fill="#171717" stroke="#171717" stroke-width="1.51"/><path d="M319,1110L373,1254L386,1125Z" fill="#3e3e3e" stroke="#3e3e3e" stroke-width="1.51"/><path d="M372,923L272,1044L414,999Z" fill="#353535" stroke="#353535" stroke-width="1.51"/><path d="M327,902L272,1044L372,923Z" fill="#333333" stroke="#333333" stroke-width="1.51"/><path d="M319,1110L325,1265L373,1254Z" fill="#404040" stroke="#404040" stroke-width="1.51"/><path d="M339,33L321,221L396,104Z" fill="#191919" stroke="#191919" stroke-width="1.51"/><path d="M314,656L253,813L376,689Z" fill="#282828" stroke="#282828" stroke-width="1.51"/><path d="M155,95L321,221L339,33Z" fill="#181818" stroke="#181818" stroke-width="1.51"/><path d="M145,560L184,634L279,464Z" fill="#1f1f1f" stroke="#1f1f1f" stroke-width="1.51"/><path d="M155,95L132,151L321,221Z" fill="#181818" stroke="#181818" stroke-width="1.51"/><path d="M225,450L279,464L322,288Z" fill="#1d1d1d" stroke="#1d1d1d" stroke-width="1.51"/><path d="M207,300L225,450L322,288Z" fill="#1c1c1c" stroke="#1c1c1c" stroke-width="1.51"/><path d="M184,634L314,656L323,492Z" fill="#212121" stroke="#212121" stroke-width="1.51"/><path d="M279,464L184,634L323,492Z" fill="#1f1f1f" stroke="#1f1f1f" stroke-width="1.51"/><path d="M319,1110L210,1245L325,1265Z" fill="#3f3f3f" stroke="#3f3f3f" stroke-width="1.51"/><path d="M173,887L272,1044L327,902Z" fill="#313131" stroke="#313131" stroke-width="1.51"/><path d="M282,-42L224,-36L339,33Z" fill="#171717" stroke="#171717" stroke-width="1.51"/><path d="M224,-36L155,95L339,33Z" fill="#181818" stroke="#181818" stroke-width="1.51"/><path d="M184,634L253,813L314,656Z" fill="#262626" stroke="#262626" stroke-width="1.51"/><path d="M145,1137L210,1245L319,1110Z" fill="#3c3c3c" stroke="#3c3c3c" stroke-width="1.51"/><path d="M321,221L207,300L322,288Z" fill="#1b1b1b" stroke="#1b1b1b" stroke-width="1.51"/><path d="M253,813L173,887L327,902Z" fill="#2e2e2e" stroke="#2e2e2e" stroke-width="1.51"/><path d="M173,887L147,1002L272,1044Z" fill="#333333" stroke="#333333" stroke-width="1.51"/><path d="M132,151L207,300L321,221Z" fill="#191919" stroke="#191919" stroke-width="1.51"/><path d="M225,450L145,560L279,464Z" fill="#1d1d1d" stroke="#1d1d1d" stroke-width="1.51"/><path d="M224,-36L282,-42L307,-148Z" fill="#161616" stroke="#161616" stroke-width="1.51"/><path d="M272,1044L145,1137L319,1110Z" fill="#393939" stroke="#393939" stroke-width="1.51"/><path d="M184,634L170,806L253,813Z" fill="#282828" stroke="#282828" stroke-width="1.51"/><path d="M142,-165L224,-36L307,-148Z" fill="#151515" stroke="#151515" stroke-width="1.51"/><path d="M147,1002L145,1137L272,1044Z" fill="#373737" stroke="#373737" stroke-width="1.51"/><path d="M207,300L100,425L225,450Z" fill="#1c1c1c" stroke="#1c1c1c" stroke-width="1.51"/><path d="M170,806L173,887L253,813Z" fill="#2c2c2c" stroke="#2c2c2c" stroke-width="1.51"/><path d="M76,693L170,806L184,634Z" fill="#262626" stroke="#262626" stroke-width="1.51"/><path d="M64,43L155,95L224,-36Z" fill="#171717" stroke="#171717" stroke-width="1.51"/><path d="M93,-74L64,43L224,-36Z" fill="#161616" stroke="#161616" stroke-width="1.51"/><path d="M142,-165L93,-74L224,-36Z" fill="#151515" stroke="#151515" stroke-width="1.51"/><path d="M100,425L145,560L225,450Z" fill="#1d1d1d" stroke="#1d1d1d" stroke-width="1.51"/><path d="M132,151L28,254L207,300Z" fill="#191919" stroke="#191919" stroke-width="1.51"/><path d="M145,1137L27,1255L210,1245Z" fill="#3e3e3e" stroke="#3e3e3e" stroke-width="1.51"/><path d="M28,254L100,425L207,300Z" fill="#1a1a1a" stroke="#1a1a1a" stroke-width="1.51"/><path d="M69,158L28,254L132,151Z" fill="#181818" stroke="#181818" stroke-width="1.51"/><path d="M100,425L54,536L145,560Z" fill="#1d1d1d" stroke="#1d1d1d" stroke-width="1.51"/><path d="M35,1041L145,1137L147,1002Z" fill="#363636" stroke="#363636" stroke-width="1.51"/><path d="M170,806L59,870L173,887Z" fill="#2c2c2c" stroke="#2c2c2c" stroke-width="1.51"/><path d="M59,870L147,1002L173,887Z" fill="#2f2f2f" stroke="#2f2f2f" stroke-width="1.51"/><path d="M145,560L76,693L184,634Z" fill="#222222" stroke="#222222" stroke-width="1.51"/><path d="M35,1041L39,1108L145,1137Z" fill="#373737" stroke="#373737" stroke-width="1.51"/><path d="M76,693L16,822L170,806Z" fill="#282828" stroke="#282828" stroke-width="1.51"/><path d="M16,822L59,870L170,806Z" fill="#2b2b2b" stroke="#2b2b2b" stroke-width="1.51"/><path d="M-24,-215L26,-140L142,-165Z" fill="#121212" stroke="#121212" stroke-width="1.51"/><path d="M39,1108L27,1255L145,1137Z" fill="#3b3b3b" stroke="#3b3b3b" stroke-width="1.51"/><path d="M54,536L76,693L145,560Z" fill="#202020" stroke="#202020" stroke-width="1.51"/><path d="M59,870L35,1041L147,1002Z" fill="#313131" stroke="#313131" stroke-width="1.51"/><path d="M69,158L132,151L155,95Z" fill="#181818" stroke="#181818" stroke-width="1.51"/><path d="M64,43L69,158L155,95Z" fill="#171717" stroke="#171717" stroke-width="1.51"/><path d="M26,-140L93,-74L142,-165Z" fill="#141414" stroke="#141414" stroke-width="1.51"/><path d="M54,536L-44,661L76,693Z" fill="#212121" stroke="#212121" stroke-width="1.51"/><path d="M-39,-105L64,43L93,-74Z" fill="#141414" stroke="#141414" stroke-width="1.51"/><path d="M-80,388L54,536L100,425Z" fill="#1b1b1b" stroke="#1b1b1b" stroke-width="1.51"/><path d="M28,254L-80,388L100,425Z" fill="#1a1a1a" stroke="#1a1a1a" stroke-width="1.51"/><path d="M-69,1031L35,1041L59,870Z" fill="#313131" stroke="#313131" stroke-width="1.51"/><path d="M64,43L-56,89L69,158Z" fill="#161616" stroke="#161616" stroke-width="1.51"/><path d="M26,-140L-39,-105L93,-74Z" fill="#131313" stroke="#131313" stroke-width="1.51"/><path d="M-44,661L-73,787L16,822Z" fill="#262626" stroke="#262626" stroke-width="1.51"/><path d="M-60,267L-80,388L28,254Z" fill="#191919" stroke="#191919" stroke-width="1.51"/><path d="M-89,1179L27,1255L39,1108Z" fill="#3b3b3b" stroke="#3b3b3b" stroke-width="1.51"/><path d="M-82,861L-69,1031L59,870Z" fill="#2d2d2d" stroke="#2d2d2d" stroke-width="1.51"/><path d="M-39,-105L-56,89L64,43Z" fill="#151515" stroke="#151515" stroke-width="1.51"/><path d="M-56,89L-54,149L69,158Z" fill="#161616" stroke="#161616" stroke-width="1.51"/><path d="M-44,661L16,822L76,693Z" fill="#252525" stroke="#252525" stroke-width="1.51"/><path d="M-87,577L-44,661L54,536Z" fill="#1e1e1e" stroke="#1e1e1e" stroke-width="1.51"/><path d="M-54,149L28,254L69,158Z" fill="#171717" stroke="#171717" stroke-width="1.51"/><path d="M-80,388L-87,577L54,536Z" fill="#1c1c1c" stroke="#1c1c1c" stroke-width="1.51"/><path d="M16,822L-82,861L59,870Z" fill="#2b2b2b" stroke="#2b2b2b" stroke-width="1.51"/><path d="M-89,1179L-18,1270L27,1255Z" fill="#3d3d3d" stroke="#3d3d3d" stroke-width="1.51"/><path d="M-54,149L-60,267L28,254Z" fill="#171717" stroke="#171717" stroke-width="1.51"/><path d="M35,1041L-69,1031L39,1108Z" fill="#353535" stroke="#353535" stroke-width="1.51"/><path d="M-69,1031L-89,1179L39,1108Z" fill="#373737" stroke="#373737" stroke-width="1.51"/><path d="M-24,-215L-39,-105L26,-140Z" fill="#121212" stroke="#121212" stroke-width="1.51"/><path d="M-82,861L-143,972L-69,1031Z" fill="#2f2f2f" stroke="#2f2f2f" stroke-width="1.51"/><path d="M-73,787L-82,861L16,822Z" fill="#292929" stroke="#292929" stroke-width="1.51"/><path d="M-164,413L-87,577L-80,388Z" fill="#1a1a1a" stroke="#1a1a1a" stroke-width="1.51"/><path d="M-149,90L-56,89L-39,-105Z" fill="#141414" stroke="#141414" stroke-width="1.51"/><path d="M-217,-99L-149,90L-39,-105Z" fill="#131313" stroke="#131313" stroke-width="1.51"/><path d="M-139,-222L-39,-105L-24,-215Z" fill="#101010" stroke="#101010" stroke-width="1.51"/><path d="M-89,1179L-221,1284L-18,1270Z" fill="#3d3d3d" stroke="#3d3d3d" stroke-width="1.51"/><path d="M-164,413L-154,581L-87,577Z" fill="#1b1b1b" stroke="#1b1b1b" stroke-width="1.51"/><path d="M-176,1166L-89,1179L-69,1031Z" fill="#373737" stroke="#373737" stroke-width="1.51"/><path d="M-187,252L-60,267L-54,149Z" fill="#171717" stroke="#171717" stroke-width="1.51"/><path d="M-168,761L-73,787L-44,661Z" fill="#252525" stroke="#252525" stroke-width="1.51"/><path d="M-139,-222L-217,-99L-39,-105Z" fill="#111111" stroke="#111111" stroke-width="1.51"/><path d="M-187,252L-80,388L-60,267Z" fill="#181818" stroke="#181818" stroke-width="1.51"/><path d="M-154,581L-210,615L-44,661Z" fill="#1f1f1f" stroke="#1f1f1f" stroke-width="1.51"/><path d="M-210,615L-168,761L-44,661Z" fill="#212121" stroke="#212121" stroke-width="1.51"/><path d="M-87,577L-154,581L-44,661Z" fill="#1f1f1f" stroke="#1f1f1f" stroke-width="1.51"/><path d="M-169,938L-143,972L-82,861Z" fill="#2d2d2d" stroke="#2d2d2d" stroke-width="1.51"/><path d="M-149,90L-219,187L-54,149Z" fill="#151515" stroke="#151515" stroke-width="1.51"/><path d="M-219,187L-187,252L-54,149Z" fill="#161616" stroke="#161616" stroke-width="1.51"/><path d="M-56,89L-149,90L-54,149Z" fill="#151515" stroke="#151515" stroke-width="1.51"/><path d="M-176,1166L-221,1284L-89,1179Z" fill="#3a3a3a" stroke="#3a3a3a" stroke-width="1.51"/><path d="M-187,252L-164,413L-80,388Z" fill="#181818" stroke="#181818" stroke-width="1.51"/><path d="M-168,761L-82,861L-73,787Z" fill="#272727" stroke="#272727" stroke-width="1.51"/><path d="M-143,972L-176,1166L-69,1031Z" fill="#333333" stroke="#333333" stroke-width="1.51"/><path d="M-168,761L-169,938L-82,861Z" fill="#292929" stroke="#292929" stroke-width="1.51"/><path d="M-164,413L-210,615L-154,581Z" fill="#1b1b1b" stroke="#1b1b1b" stroke-width="1.51"/><path d="M-169,938L-176,1166L-143,972Z" fill="#313131" stroke="#313131" stroke-width="1.51"/><path d="M-217,-99L-219,187L-149,90Z" fill="#131313" stroke="#131313" stroke-width="1.51"/><path d="M-221,1284L-176,1166L-169,938Z" fill="#363636" stroke="#363636" stroke-width="1.51"/><path d="M-210,615L-169,938L-168,761Z" fill="#252525" stroke="#252525" stroke-width="1.51"/><path d="M-187,252L-219,187L-164,413Z" fill="#171717" stroke="#171717" stroke-width="1.51"/><path d="M-219,187L-210,615L-164,413Z" fill="#191919" stroke="#191919" stroke-width="1.51"/><path d="M-210,615L-221,1284L-169,938Z" fill="#2d2d2d" stroke="#2d2d2d" stroke-width="1.51"/><path d="M-219,187L-221,1284L-210,615Z" fill="#222222" stroke="#222222" stroke-width="1.51"/></svg>